<?xml version="1.0" standalone="no"?>
<!DOCTYPE svg PUBLIC "-//W3C//DTD SVG 20010904//EN"
 "http://www.w3.org/TR/2001/REC-SVG-20010904/DTD/svg10.dtd">
<svg version="1.0" xmlns="http://www.w3.org/2000/svg"
 width="476.000000pt" height="241.000000pt" viewBox="0 0 476.000000 241.000000"
 preserveAspectRatio="xMidYMid meet">
<metadata>
Created by potrace 1.16, written by Peter Selinger 2001-2019
</metadata>
<g transform="translate(0.000000,241.000000) scale(0.100000,-0.100000)"
fill="#000000" stroke="none">
<path d="M1358 2391 c-224 -72 -377 -285 -369 -515 l1 -29 68 6 c217 20 399
229 419 480 l6 77 -34 -1 c-19 0 -60 -8 -91 -18z"/>
<path d="M2380 1915 l0 -205 -120 0 -120 0 0 -140 0 -140 125 0 125 0 0 -527
c0 -319 4 -554 11 -593 21 -136 85 -227 193 -277 59 -27 66 -28 259 -31 l197
-4 0 141 0 140 -92 -1 c-96 -2 -122 5 -166 46 -58 52 -57 36 -60 599 l-3 517
166 0 165 0 0 135 0 135 -165 0 -165 0 0 205 0 205 -175 0 -175 0 0 -205z"/>
<path d="M1290 1810 c-36 -10 -107 -35 -158 -54 -52 -20 -109 -36 -129 -36
-19 0 -80 17 -136 38 -146 55 -196 66 -291 59 -233 -16 -427 -168 -513 -405
-96 -259 -59 -613 97 -939 86 -182 238 -380 339 -445 42 -26 52 -28 146 -28
94 0 107 3 191 37 84 35 95 38 199 38 105 0 115 -2 204 -38 92 -37 98 -39 197
-35 100 3 103 4 160 43 98 68 249 278 325 454 57 132 57 136 17 156 -112 57
-217 180 -260 303 -32 93 -32 229 0 327 30 90 103 198 174 255 65 52 66 50
-19 134 -65 64 -181 127 -271 145 -78 16 -198 12 -272 -9z"/>
<path d="M3230 1697 c0 -11 524 -1513 577 -1655 l16 -42 180 2 180 3 288 824
c159 453 289 836 289 852 l0 29 -169 0 -170 0 -25 -82 c-356 -1171 -391 -1278
-402 -1245 -6 18 -100 323 -209 680 l-199 647 -178 0 c-141 0 -178 -3 -178
-13z"/>
</g>
</svg>
